<svg id="Layer_1" enable-background="new 0 0 512.001 512.001" height="512" viewBox="0 0 512.001 512.001" width="512" xmlns="http://www.w3.org/2000/svg"><g><g><path d="m476.172 425.399c3.715-6.986 5.829-14.947 5.829-23.395v-20c0-24.146-17.205-44.348-40-48.993v-27.011c0-16.542-13.458-30-30-30h-146v-36.421c61.507-5.099 109.999-56.779 109.999-119.579 0-66.168-53.831-120-120-120-15.995 0-31.538 3.103-46.196 9.223-5.097 2.127-7.503 7.984-5.375 13.081s7.986 7.504 13.081 5.375c12.205-5.096 25.155-7.679 38.491-7.679 55.14 0 100 44.859 100 100 0 26.232-10.158 50.133-26.741 67.989-6.175-13.968-16.315-26.057-29.089-34.592 3.715-6.986 5.83-14.948 5.83-23.397v-20c0-27.57-22.43-50-50-50s-50 22.43-50 50v20c0 8.448 2.114 16.409 5.829 23.395-12.789 8.539-22.917 20.62-29.087 34.594-16.583-17.856-26.742-41.757-26.742-67.99 0-11.853 2.052-23.45 6.098-34.469 1.904-5.185-.756-10.931-5.94-12.834-5.182-1.902-10.93.755-12.834 5.94-4.86 13.234-7.324 27.15-7.324 41.363 0 62.801 48.493 114.481 110 119.58v36.421h-146.002c-16.542 0-30 13.458-30 30v27.01c-22.795 4.646-40 24.847-40 48.993v20c0 8.451 2.115 16.414 5.832 23.401-22.05 14.737-35.831 39.858-35.831 66.599v9.998c0 5.523 4.477 10 10 10h140c5.523 0 10-4.477 10-10v-9.998c0-26.756-13.776-51.865-35.831-66.6 3.716-6.986 5.831-14.949 5.831-23.399v-20c0-24.146-17.205-44.348-40-48.993v-27.011c0-5.514 4.486-10 10-10h146.001v37.01c-22.795 4.646-40 24.847-40 48.993v20c0 8.45 2.115 16.413 5.831 23.4-22.053 14.735-35.831 39.848-35.831 66.599v9.998c0 5.523 4.477 10 10 10h140c5.522 0 10-4.477 10-10v-9.998c0-26.75-13.778-51.864-35.832-66.599 3.716-6.987 5.831-14.949 5.831-23.4v-20c0-24.146-17.205-44.347-39.999-48.993v-37.01h146c5.514 0 10 4.486 10 10v27.01c-22.795 4.646-40 24.847-40 48.993v20c0 8.448 2.114 16.409 5.829 23.394-22.063 14.733-35.829 39.819-35.829 66.605v9.998c0 5.523 4.478 10 10 10h140c5.522 0 10-4.477 10-10v-9.998c0-26.783-13.767-51.871-35.829-66.603zm-250.171-315.399c0-16.542 13.458-30 30-30 16.542 0 29.999 13.458 29.999 30v20c0 16.542-13.458 30-30 30s-30-13.458-30-30v-20zm-1.334 58.924c8.58 6.92 19.478 11.076 31.334 11.076 11.855 0 22.753-4.155 31.332-11.075 12.248 7.581 21.501 19.41 25.857 33.06-16.217 11.346-35.938 18.015-57.189 18.015-21.252 0-40.974-6.669-57.192-18.017 4.355-13.66 13.595-25.475 25.858-33.059zm-84.667 323.077-120 .002c0-20.745 11.081-40.199 28.66-51.079 8.581 6.923 19.481 11.08 31.339 11.08 11.859 0 22.76-4.158 31.341-11.081 17.582 10.879 28.66 30.324 28.66 51.078zm-30-109.997v20c0 16.542-13.458 30-30 30s-30-13.458-30-30v-20c0-16.542 13.458-30 30-30s30 13.458 30 30zm206.001 109.997-120 .002c0-20.753 11.079-40.2 28.66-51.08 8.581 6.923 19.482 11.081 31.34 11.081s22.759-4.158 31.34-11.081c17.581 10.881 28.66 30.329 28.66 51.078zm-30.001-109.997v20c0 16.542-13.458 30-30 30s-30-13.458-30-30v-20c0-16.542 13.458-30 30-30s30 13.458 30 30zm116.001 0c0-16.542 13.458-30 30-30s30 13.458 30 30v20c0 16.542-13.458 30-30 30s-30-13.458-30-30zm-30 109.999c0-20.778 11.068-40.204 28.656-51.083 8.581 6.925 19.484 11.084 31.344 11.084s22.762-4.159 31.344-11.083c17.588 10.879 28.656 30.304 28.656 51.081z"/><path d="m176.557 53.916c5.523 0 10-4.477 10-10s-4.477-10-10-10h-.007c-5.523 0-9.996 4.477-9.996 10s4.48 10 10.003 10z"/></g></g></svg>