<svg id="Layer_1" enable-background="new 0 0 512.001 512.001" height="512" viewBox="0 0 512.001 512.001" width="512" xmlns="http://www.w3.org/2000/svg"><g><g><path d="m476.172 119.397c3.715-6.986 5.83-14.948 5.83-23.396v-20.001c0-27.569-22.43-49.999-50-49.999-25.495 0-46.58 19.185-49.611 43.873-35.881-28.422-80.011-43.873-126.389-43.873-46.385 0-90.506 15.451-126.39 43.875-3.031-24.689-24.116-43.875-49.612-43.875-27.57 0-50 22.43-50 49.999v20.001c0 8.45 2.115 16.412 5.831 23.398-22.056 14.734-35.831 39.841-35.831 66.601v29.999c0 5.522 4.477 10 10 10h42.066c-.026 1.335-.064 2.673-.064 4.001 0 26.749 5.108 52.769 15.182 77.337 1.586 3.868 5.319 6.209 9.256 6.209 1.264 0 2.548-.241 3.79-.751 5.11-2.095 7.554-7.936 5.458-13.046-9.081-22.149-13.686-45.615-13.686-69.749 0-1.328.035-2.665.064-4.001h20.008c-.032 1.335-.072 2.672-.072 4.001 0 70.435 44.8 132.893 111.479 155.417l.332.112c-5.453 4.735-10.231 10.163-14.214 16.115-19.938-7.708-38.252-18.768-54.519-32.963-4.161-3.631-10.478-3.202-14.11.959-3.631 4.161-3.202 10.479.959 14.109 17.543 15.309 37.235 27.338 58.652 35.85-2.974 8.381-4.579 17.294-4.579 26.402v29.999c0 5.522 4.477 10 10 10h140c5.523 0 10-4.478 10-10v-29.999c0-9.128-1.612-18.058-4.596-26.453 77.321-30.695 128.594-105.624 128.594-189.548 0-1.328-.035-2.666-.061-4.001h42.062c5.523 0 10-4.478 10-10v-29.999c0-26.773-13.77-51.87-35.829-66.603zm-74.171-43.397c0-16.542 13.458-29.999 30-29.999s30 13.457 30 29.999v20.001c0 16.542-13.458 30-30 30s-30-13.458-30-30zm-20 19.937v.064c0 8.451 2.115 16.415 5.832 23.402-2.058 1.376-4.043 2.843-5.953 4.393l-10.915-10.734c-30.858-30.348-71.687-47.061-114.965-47.061-43.273 0-84.103 16.714-114.968 47.063l-10.912 10.729c-1.91-1.549-3.893-3.018-5.952-4.394 3.716-6.986 5.831-14.949 5.831-23.398v-.066c34.255-32.23 78.834-49.934 126.001-49.934 47.164 0 91.753 17.707 126.001 49.936zm-332.001-19.937c0-16.542 13.458-29.999 30-29.999s30 13.457 30 29.999v20.001c0 16.542-13.458 30-30 30s-30-13.458-30-30zm-30 110c0-20.758 11.076-40.201 28.659-51.081 8.581 6.924 19.482 11.082 31.341 11.082s22.76-4.158 31.341-11.082c17.582 10.88 28.659 30.324 28.659 51.081v19.999h-120zm92.002 44c0-1.329.035-2.665.072-4.001h37.926c5.523 0 10-4.478 10-10v-29.999c0-17.431-5.853-34.158-16.025-47.78l11.08-10.895c27.101-26.648 62.951-41.324 100.945-41.324 37.999 0 73.847 14.675 100.941 41.32l11.089 10.905c-10.173 13.626-16.03 30.358-16.03 47.774v29.999c0 5.522 4.477 10 10 10h37.927c.036 1.336.072 2.673.072 4.001 0 60.782-38.001 114.78-94.892 135.368.578-3.036.892-6.163.892-9.365v-20.001c0-27.569-22.43-49.999-50-49.999s-50 22.43-50 49.999v20.001c0 3.221.318 6.367.902 9.42-56.894-20.607-94.899-74.629-94.899-135.423zm113.998 126.003v-20.001c0-16.542 13.458-29.999 30-29.999s30 13.457 30 29.999v20.001c0 16.542-13.458 30-30 30s-30-13.458-30-30zm90.001 109.998h-120v-19.999c0-20.762 11.075-40.201 28.658-51.081 8.581 6.924 19.482 11.082 31.341 11.082 11.86 0 22.762-4.158 31.343-11.083 17.585 10.879 28.658 30.315 28.658 51.082zm123.999-236.001c0 76.288-46.964 144.343-117.615 171.613-3.99-5.956-8.777-11.387-14.24-16.123l.363-.122c66.687-22.499 111.492-84.937 111.492-155.368 0-1.328-.039-2.665-.072-4.001h20.011c.029 1.336.061 2.673.061 4.001zm52.001-24.001h-120v-19.999c0-20.739 11.084-40.198 28.661-51.079 8.581 6.923 19.481 11.08 31.339 11.08 11.859 0 22.761-4.158 31.342-11.083 17.585 10.879 28.658 30.313 28.658 51.082z"/><path d="m98.234 332.92h-.007c-5.523 0-9.996 4.478-9.996 10s4.48 10 10.003 10 10-4.478 10-10-4.477-10-10-10z"/></g></g></svg>