<svg id="Layer_1" enable-background="new 0 0 512.002 512.002" height="512" viewBox="0 0 512.002 512.002" width="512" xmlns="http://www.w3.org/2000/svg"><g><g><path d="m493.502 206.07-23.026-1.444c-.127-.008-.254-.014-.382-.017-.98-.024-2.189-.67-2.532-2.04-5.149-20.524-13.291-40.177-24.202-58.415-.585-.977-.463-2.26.308-3.131l15.595-17.68c6.981-7.916 7.011-19.122.067-26.065l-44.618-44.613c-6.943-6.941-18.149-6.912-26.064.067l-17.319 15.273c-.101.089-.199.18-.296.272-.703.672-2.003 1.07-3.201.354-18.186-10.878-37.838-19.019-58.411-24.196-.006-.001-.012-.003-.018-.004-1.133-.283-1.944-1.26-2.018-2.433l-1.474-23.5c-.66-10.545-8.553-18.498-18.36-18.498h-63.098c-9.806 0-17.7 7.952-18.363 18.499l-1.444 23.022c-.008.127-.014.254-.017.382-.024.979-.67 2.188-2.041 2.531-20.529 5.148-40.185 13.29-58.423 24.198-.977.586-2.261.463-3.133-.309l-17.678-15.589c-7.916-6.98-19.121-7.01-26.065-.067l-44.615 44.611c-6.946 6.944-6.917 18.15.067 26.066l15.272 17.315c.088.101.179.199.272.296.671.702 1.068 2.002.354 3.198-10.88 18.187-19.023 37.838-24.208 58.426-.278 1.115-1.279 1.945-2.434 2.017l-23.496 1.474c-10.547.661-18.5 8.554-18.5 18.36v63.092c0 9.807 7.953 17.7 18.499 18.36l23.025 1.444c.127.008.254.014.382.017.98.024 2.189.67 2.532 2.04 5.149 20.525 13.29 40.179 24.2 58.419.585.978.463 2.26-.308 3.131l-15.589 17.674c-6.984 7.916-7.013 19.122-.068 26.065l44.616 44.613c6.943 6.942 18.149 6.915 26.065-.067l17.317-15.271c.101-.089.199-.18.296-.272.703-.671 2.005-1.069 3.201-.354 18.187 10.879 37.84 19.021 58.432 24.205 1.115.278 1.945 1.279 2.017 2.433l1.474 23.493c.651 10.401 8.717 18.549 18.362 18.549.335 0 .667-.017.994-.049h61.105c.329.033.662.049.999.049 9.644 0 17.709-8.147 18.361-18.548l1.444-23.023c.008-.127.014-.254.017-.382.024-.979.67-2.188 2.04-2.531 20.526-5.147 40.182-13.287 58.424-24.197.978-.585 2.261-.462 3.145.319l17.672 15.534c7.934 6.985 19.136 7.033 26.058.112l44.618-44.613c6.943-6.944 6.915-18.149-.068-26.065l-15.273-17.315c-.088-.1-.179-.199-.271-.295-.672-.703-1.069-2.003-.354-3.198 10.88-18.185 19.023-37.836 24.207-58.426.236-.943 1.08-1.933 2.434-2.018l23.497-1.474c10.546-.661 18.5-8.554 18.5-18.36v-63.092c-.002-9.805-7.955-17.698-18.501-18.359zm-1.501 79.868-23.248 1.458c-9.909.622-18.181 7.506-20.581 17.113-4.703 18.676-12.095 36.516-21.972 53.024-5.178 8.657-3.978 19.773 2.902 27.118l14.982 16.985-42.384 42.378-17.49-15.374c-7.431-6.574-18.139-7.57-26.642-2.481-16.557 9.902-34.396 17.291-53.014 21.958-9.795 2.449-16.828 11.159-17.17 21.227l-1.418 22.608h-59.93l-1.458-23.244c-.621-9.909-7.506-18.181-17.114-20.581-18.678-4.702-36.52-12.093-53.03-21.969-8.657-5.178-19.775-3.977-27.121 2.903l-16.986 14.979-42.407-42.404 15.4-17.46c6.575-7.431 7.572-18.139 2.482-26.642-9.902-16.555-17.292-34.392-21.961-53.007-2.448-9.795-11.159-16.828-21.229-17.17l-22.611-1.418v-59.922l23.248-1.458c9.91-.621 18.183-7.506 20.582-17.113 4.702-18.674 12.094-36.514 21.972-53.024 5.178-8.657 3.977-19.774-2.903-27.119l-14.98-16.984 42.409-42.405 17.464 15.401c7.432 6.575 18.141 7.571 26.642 2.481 16.554-9.9 34.392-17.289 53.013-21.959 9.795-2.449 16.829-11.159 17.17-21.228l1.417-22.609h59.932l1.458 23.25c.621 9.908 7.505 18.18 17.13 20.584 18.672 4.7 36.507 12.089 53.011 21.961 8.657 5.177 19.775 3.978 27.12-2.903l16.988-14.98 42.41 42.405-15.404 17.464c-6.576 7.431-7.572 18.139-2.482 26.643 9.903 16.554 17.293 34.389 21.963 53.003 2.448 9.795 11.159 16.827 21.229 17.17l22.611 1.418z"/><path d="m256.001 96.001c-26.143 0-52.097 6.458-75.057 18.674-4.875 2.595-6.725 8.65-4.13 13.525s8.65 6.724 13.525 4.131c20.078-10.684 42.783-16.331 65.662-16.331 77.196 0 140 62.804 140 140s-62.804 140-140 140-140-62.804-140-140c0-22.829 5.324-44.598 15.824-64.701 2.557-4.895.661-10.937-4.234-13.493-4.895-2.558-10.937-.661-13.494 4.234-11.839 22.666-18.096 48.241-18.096 73.96 0 88.224 71.776 160 160 160s160-71.776 160-160-71.776-159.999-160-159.999z"/><path d="m209.182 294.035c-11.696 11.696-11.696 30.728 0 42.424 4.986 4.985 10.652 8.971 16.911 11.9 1.207 15.444 14.16 27.642 29.909 27.642 16.542 0 30-13.458 30-30v-2.808c2.86-1.999 5.548-4.251 8.032-6.735 23.393-23.394 23.392-61.457-.001-84.85l-32.135-32.238c5.463 4.775 12.387 7.383 19.711 7.383 8.013 0 15.546-3.121 21.211-8.786 5.666-5.666 8.787-13.199 8.787-21.212s-3.121-15.546-8.786-21.211c-4.985-4.985-10.652-8.971-16.911-11.901-1.207-15.444-14.16-27.642-29.908-27.642-16.542 0-30 13.458-30 30v2.808c-2.861 1.999-5.548 4.251-8.032 6.734-23.392 23.395-23.392 61.458.001 84.85l32.136 32.239c-5.463-4.776-12.387-7.384-19.712-7.384-8.014.001-15.548 3.121-21.213 8.787zm56.57 14.143c7.798-7.799 7.798-20.489 0-28.288l-33.64-33.639c-15.595-15.594-15.595-40.97-.001-56.565 2.61-2.609 5.554-4.834 8.75-6.612 3.172-1.764 5.14-5.109 5.14-8.739v-8.334c0-5.514 4.486-10 10-10s10 4.486 10 10v4.456c0 4.323 2.778 8.156 6.886 9.502 5.986 1.962 11.299 5.235 15.791 9.727 1.889 1.888 2.928 4.399 2.928 7.069 0 2.671-1.04 5.181-2.928 7.07-1.888 1.888-4.398 2.928-7.069 2.928-2.67 0-5.181-1.04-7.069-2.928-7.8-7.799-20.49-7.8-28.288 0-7.798 7.799-7.799 20.488 0 28.288l33.639 33.639c15.595 15.595 15.595 40.97.001 56.565-2.61 2.61-5.554 4.834-8.75 6.611-3.173 1.764-5.14 5.109-5.14 8.74v8.334c0 5.514-4.486 10-10 10s-10-4.486-10-10v-4.456c0-4.323-2.778-8.157-6.886-9.503-5.985-1.961-11.297-5.234-15.79-9.727-3.898-3.898-3.898-10.241 0-14.139 1.888-1.888 4.398-2.928 7.069-2.928 2.67 0 5.181 1.04 7.069 2.928 7.797 7.799 20.487 7.799 28.288.001z"/><path d="m149.526 160.346c5.523 0 10-4.477 10-10s-4.477-10-10-10h-.007c-5.523 0-9.996 4.477-9.996 10s4.48 10 10.003 10z"/></g></g></svg>