<svg id="Layer_1" enable-background="new 0 0 512.002 512.002" height="512" viewBox="0 0 512.002 512.002" width="512" xmlns="http://www.w3.org/2000/svg"><g><g><path d="m502.002 442.002h-10.001v-319.998c0-16.542-13.458-30-30-30h-130.822c-3.202-14.695-7.967-28.282-14.209-40.351-13.665-26.419-33.779-44.143-58.17-51.253-1.828-.533-3.77-.533-5.598 0-24.391 7.11-44.505 24.834-58.17 51.254-6.242 12.068-11.007 25.656-14.209 40.351h-130.822c-16.542 0-30 13.458-30 30v319.998h-10.001c-5.522 0-10 4.478-10 10v30c0 16.542 13.458 30 30 30h452.002c16.542 0 30-13.458 30-30v-30c0-5.523-4.477-10.001-10-10.001zm-186.001 0c-5.522 0-10 4.478-10 10h-100c0-5.522-4.478-10-10-10h-75.997v-20.001h351.997v20.001zm146-329.998c5.514 0 10 4.486 10 10v10h-136.1c-.188-6.811-.676-13.483-1.432-20zm-206 240.368c-15.439-13.084-21.071-34.595-13.629-52.371h27.258c7.442 17.776 1.81 39.287-13.629 52.371zm60-213.637c0 49.307-17.993 105.349-45.09 141.266h-29.82c-27.097-35.917-45.09-91.959-45.09-141.266 0-26.506 4.625-50.289 12.954-69.654 14.46 4.699 30.547 7.17 47.046 7.17 16.503 0 32.587-2.47 47.046-7.17 8.329 19.365 12.954 43.148 12.954 69.654zm-110.515 121.265h-28.863c-.413-3.311-.621-6.654-.621-10.001 0-14.035 3.634-27.585 10.433-39.521 4.885 17.359 11.338 34.179 19.051 49.522zm120.082-49.521c6.798 11.934 10.433 25.482 10.433 39.52 0 3.347-.208 6.69-.621 10.001h-28.863c7.712-15.343 14.165-32.162 19.051-49.521zm-69.567-189.99c14.886 5.111 27.597 15.765 37.438 30.632-11.575 3.367-24.318 5.13-37.438 5.13-13.116 0-25.861-1.763-37.437-5.131 9.841-14.867 22.552-25.521 37.437-30.631zm-216 101.515c0-5.514 4.486-10 10-10h127.531c-.756 6.517-1.243 13.189-1.432 20h-18.932c-5.522 0-10 4.478-10 10s4.478 10 10 10h19.238c.622 10.727 1.975 21.647 3.989 32.548-15.764 18.182-24.394 41.241-24.394 65.446 0 7.482.835 14.957 2.482 22.214 1.033 4.555 5.082 7.787 9.752 7.787h48.563c2.461 3.859 5.012 7.56 7.639 11.098-12.707 28.715-1.827 64.319 26.207 82.101 1.635 1.037 3.495 1.556 5.356 1.556 1.86 0 3.722-.519 5.356-1.556 28.033-17.781 38.914-53.386 26.207-82.102 2.628-3.538 5.179-7.238 7.639-11.098h48.563c4.67 0 8.719-3.232 9.752-7.787 1.647-7.257 2.482-14.731 2.482-22.214 0-24.211-8.628-47.267-24.394-65.448 2.013-10.9 3.366-21.82 3.988-32.546h136.406v249.997h-432v-249.996h27.168c5.522 0 10-4.478 10-10s-4.478-10-10-10h-27.166zm0 299.997h60.003v20.001h-60.003zm452.001 60.001c0 5.514-4.486 10-10 10h-452.002c-5.514 0-10-4.486-10-10v-20h168.685c3.464 5.974 9.929 10 17.316 10h100c7.388 0 13.853-4.026 17.316-10h168.685z"/><path d="m223.501 150c0 17.921 14.579 32.5 32.5 32.5s32.5-14.579 32.5-32.5-14.579-32.5-32.5-32.5-32.5 14.58-32.5 32.5zm45 0c0 6.893-5.607 12.5-12.5 12.5s-12.5-5.607-12.5-12.5 5.607-12.5 12.5-12.5 12.5 5.608 12.5 12.5z"/><path d="m112.172 152.004c5.522 0 10-4.478 10-10s-4.478-10-10-10h-.007c-5.522 0-9.996 4.478-9.996 10s4.481 10 10.003 10z"/></g></g></svg>