<svg id="Layer_1" enable-background="new 0 0 512.002 512.002" height="512" viewBox="0 0 512.002 512.002" width="512" xmlns="http://www.w3.org/2000/svg"><g><g><path d="m482.002 72.002h-13.997c-12.138-41.556-50.58-72.002-96.005-72.002s-83.867 30.446-96.005 72.002h-245.995c-16.542 0-30 13.458-30 30v300c0 16.542 13.458 30 30 30h162.599l-14.884 60h-11.716c-5.523 0-10 4.478-10 10s4.477 10 10 10h180.004c5.522 0 10-4.478 10-10s-4.478-10-10-10h-11.686l-14.91-60h162.595c16.542 0 29.999-13.458 29.999-30v-300c0-16.542-13.457-30-29.999-30zm0 20c5.514 0 9.999 4.486 9.999 10v10h-20.724c.473-3.936.723-7.94.723-12.002 0-2.692-.11-5.359-.32-7.998zm-110.002-72.002c44.112 0 80 35.888 80 80s-35.888 80-80 80c-8.65 0-17.098-1.384-25.196-4.074-3.013-13.665-15.212-23.922-29.769-23.922h-5.823c-12.416-14.49-19.212-32.803-19.212-52.004 0-44.112 35.888-80 80-80zm-92.496 179.266c-.532-3.187-2.572-5.92-5.476-7.338-3.639-1.776-5.899-5.392-5.899-9.435 0-5.784 4.705-10.489 10.489-10.489h38.417c5.784 0 10.489 4.705 10.489 10.489v38.416c0 5.784-4.705 10.489-10.489 10.489-4.044 0-7.659-2.261-9.436-5.899-1.418-2.903-4.151-4.943-7.338-5.476-3.189-.535-6.436.508-8.72 2.792l-57.244 57.245c-1.98 1.98-4.614 3.071-7.415 3.071s-5.435-1.091-7.415-3.072l-37.144-37.144c-1.875-1.875-4.419-2.929-7.071-2.929s-5.196 1.054-7.071 2.929l-82.471 82.471c-1.98 1.981-4.614 3.072-7.415 3.072s-5.435-1.091-7.415-3.072c-4.089-4.089-4.089-10.741 0-14.83l96.957-96.957c4.09-4.089 10.743-4.088 14.831 0l37.143 37.144c1.875 1.875 4.419 2.929 7.071 2.929s5.196-1.054 7.071-2.929l42.758-42.758c2.286-2.285 3.326-5.532 2.793-8.719zm-249.504-107.264h242.321c-.21 2.639-.32 5.306-.32 7.998 0 4.038.241 8.044.715 12.002h-132.715c-5.523 0-10 4.478-10 10s4.477 10 10 10h137.233c2.354 6.981 5.479 13.687 9.333 20.002h-7.949c-16.812 0-30.489 13.678-30.489 30.489 0 7.134 2.42 13.808 6.686 19.105l-27.932 27.931-30.072-30.072c-11.887-11.887-31.228-11.886-43.115 0l-96.957 96.957c-11.887 11.887-11.887 31.229 0 43.115 5.758 5.758 13.414 8.93 21.558 8.93s15.799-3.172 21.558-8.93l75.399-75.399 30.072 30.072c5.758 5.758 13.414 8.93 21.558 8.93s15.8-3.172 21.558-8.93l49.488-49.489c5.298 4.266 11.973 6.686 19.106 6.686 16.812 0 30.489-13.678 30.489-30.489v-23.931c7.956 2.006 16.144 3.021 24.475 3.021 43.954 0 81.375-28.504 94.749-67.998h25.252v239.999h-472.001v-239.999h30.001c5.523 0 10-4.478 10-10s-4.477-10-10-10h-30.001v-10c0-5.514 4.486-10 10-10zm-10 310v-10.001h391.998v20.001h-381.998c-5.514 0-10-4.486-10-10zm293.709 90h-115.388l14.884-60h85.594zm168.293-80h-50.004v-20.001h60.003v10.001c0 5.514-4.485 10-9.999 10z"/><path d="m364.845 125.843c-3.906-3.904-10.236-3.904-14.143 0-3.905 3.905-3.905 10.237 0 14.143 3.259 3.259 7.159 5.495 11.298 6.711v3.303c0 5.522 4.478 10 10 10s10-4.478 10-10v-5.283c2.309-1.216 4.475-2.793 6.415-4.732 10.397-10.397 10.397-27.315 0-37.713l-18.688-18.689c-1.259-1.259-1.952-2.932-1.952-4.712 0-1.781.693-3.455 1.953-4.716 1.259-1.259 2.933-1.952 4.713-1.952 1.781 0 3.455.694 4.715 1.954 3.906 3.904 10.236 3.904 14.143 0 3.905-3.905 3.905-10.237 0-14.143-3.201-3.201-7.073-5.483-11.298-6.725v-3.289c0-5.522-4.478-10-10-10s-10 4.478-10 10v5.272c-2.334 1.234-4.495 2.822-6.415 4.742-5.037 5.037-7.812 11.734-7.812 18.857s2.775 13.82 7.812 18.855l18.688 18.688c2.6 2.6 2.6 6.828 0 9.428s-6.829 2.6-9.429.001z"/><path d="m301.543 341.999h160.457c5.522 0 10-4.478 10-10s-4.478-10-10-10h-160.457c-5.522 0-10 4.478-10 10s4.478 10 10 10z"/><path d="m372.343 301.998h89.657c5.522 0 10-4.478 10-10s-4.478-10-10-10h-89.657c-5.522 0-10 4.478-10 10s4.478 10 10 10z"/><path d="m95.005 132.002c5.523 0 10-4.478 10-10s-4.477-10-10-10h-.007c-5.523 0-9.996 4.478-9.996 10s4.48 10 10.003 10z"/></g></g></svg>